<svg width="20" height="20" viewBox="0 0 20 20" fill="none" xmlns="http://www.w3.org/2000/svg">
<g clip-path="url(#clip0_107_2)">
<mask id="mask0_107_2" style="mask-type:luminance" maskUnits="userSpaceOnUse" x="0" y="0" width="20" height="20">
<path d="M20 0H0V20H20V0Z" fill="white"/>
</mask>
<g mask="url(#mask0_107_2)">
<path d="M0.561554 2.51768C0.561554 1.50423 1.38678 0.678947 2.40028 0.678947C3.41372 0.678947 4.23901 1.50424 4.23901 2.51768C4.23901 3.53117 3.41418 4.35633 2.40028 4.35633C1.38639 4.35633 0.561554 3.53117 0.561554 2.51768Z" fill="black" stroke="white" stroke-width="0.5"/>
<path d="M8.13081 2.51768C8.13081 1.50424 8.9561 0.678947 9.96954 0.678947C10.9835 0.678947 11.8085 1.50423 11.8085 2.51768C11.8085 3.53105 10.9831 4.35633 9.96954 4.35633C8.95608 4.35633 8.13081 3.5311 8.13081 2.51768Z" fill="black" stroke="white" stroke-width="0.5"/>
<path d="M19.5 2.51775C19.5 3.53114 18.6745 4.35641 17.6613 4.35641C16.648 4.35641 15.8225 3.5311 15.8225 2.51768C15.8225 1.50415 16.6473 0.678947 17.6613 0.678947C18.6753 0.678947 19.5 1.5042 19.5 2.51775Z" fill="black" stroke="white" stroke-width="0.5"/>
<path d="M4.17811 10.0118C4.17811 11.0253 3.35271 11.8504 2.33916 11.8504C1.32555 11.8504 0.5 11.0253 0.5 10.0118C0.5 8.9982 1.32563 8.17282 2.33916 8.17282C3.35264 8.17282 4.17811 8.99808 4.17811 10.0118Z" fill="black" stroke="white" stroke-width="0.5"/>
<path d="M11.7472 10.0118C11.7472 11.0253 10.9217 11.8504 9.90843 11.8504C8.89494 11.8504 8.0697 11.0254 8.0697 10.0118C8.0697 8.99796 8.89464 8.17282 9.90843 8.17282C10.9224 8.17282 11.7472 8.99793 11.7472 10.0118Z" fill="black" stroke="white" stroke-width="0.5"/>
<path d="M19.4395 10.0118C19.4395 11.0254 18.6145 11.8504 17.6008 11.8504C16.5865 11.8504 15.7612 11.0252 15.7612 10.0118C15.7612 8.99822 16.5869 8.17282 17.6008 8.17282C18.6145 8.17282 19.4395 8.99798 19.4395 10.0118Z" fill="black" stroke="white" stroke-width="0.5"/>
<path d="M0.553513 17.4823C0.553513 16.4687 1.37908 15.6436 2.39268 15.6436C3.40614 15.6436 4.23133 16.4686 4.23133 17.4823C4.23133 18.496 3.40616 19.321 2.39268 19.321C1.37913 19.321 0.553513 18.4954 0.553513 17.4823Z" fill="black" stroke="white" stroke-width="0.5"/>
<path d="M8.12321 17.4823C8.12321 16.4687 8.94873 15.6436 9.96239 15.6436C10.9757 15.6436 11.801 16.4686 11.801 17.4823C11.801 18.496 10.9757 19.321 9.96239 19.321C8.94846 19.321 8.12321 18.4955 8.12321 17.4823Z" fill="black" stroke="white" stroke-width="0.5"/>
<path d="M15.8152 17.4823C15.8152 16.4687 16.6406 15.6436 17.6539 15.6436C18.6672 15.6436 19.4926 16.4687 19.4926 17.4823C19.4926 18.496 18.6676 19.321 17.6539 19.321C16.6406 19.321 15.8152 18.4955 15.8152 17.4823Z" fill="black" stroke="white" stroke-width="0.5"/>
</g>
</g>
<defs>
<clipPath id="clip0_107_2">
<rect width="20" height="20" fill="white"/>
</clipPath>
</defs>
</svg>
