<svg width="41" height="40" viewBox="0 0 41 40" fill="none" xmlns="http://www.w3.org/2000/svg">
    <path
        d="M14.6 40L13.8 33.6C13.3667 33.4333 12.9587 33.2333 12.576 33C12.192 32.7667 11.8167 32.5167 11.45 32.25L5.5 34.75L0 25.25L5.15 21.35C5.11667 21.1167 5.1 20.8913 5.1 20.674V19.324C5.1 19.108 5.11667 18.8833 5.15 18.65L0 14.75L5.5 5.25L11.45 7.75C11.8167 7.48333 12.2 7.23333 12.6 7C13 6.76667 13.4 6.56667 13.8 6.4L14.6 0H25.6L26.4 6.4C26.8333 6.56667 27.242 6.76667 27.626 7C28.0087 7.23333 28.3833 7.48333 28.75 7.75L34.7 5.25L40.2 14.75L35.05 18.65C35.0833 18.8833 35.1 19.108 35.1 19.324V20.674C35.1 20.8913 35.0667 21.1167 35 21.35L40.15 25.25L34.65 34.75L28.75 32.25C28.3833 32.5167 28 32.7667 27.6 33C27.2 33.2333 26.8 33.4333 26.4 33.6L25.6 40H14.6ZM20.2 27C22.1333 27 23.7833 26.3167 25.15 24.95C26.5167 23.5833 27.2 21.9333 27.2 20C27.2 18.0667 26.5167 16.4167 25.15 15.05C23.7833 13.6833 22.1333 13 20.2 13C18.2333 13 16.5747 13.6833 15.224 15.05C13.8747 16.4167 13.2 18.0667 13.2 20C13.2 21.9333 13.8747 23.5833 15.224 24.95C16.5747 26.3167 18.2333 27 20.2 27ZM20.2 23C19.3667 23 18.6587 22.708 18.076 22.124C17.492 21.5413 17.2 20.8333 17.2 20C17.2 19.1667 17.492 18.4587 18.076 17.876C18.6587 17.292 19.3667 17 20.2 17C21.0333 17 21.742 17.292 22.326 17.876C22.9087 18.4587 23.2 19.1667 23.2 20C23.2 20.8333 22.9087 21.5413 22.326 22.124C21.742 22.708 21.0333 23 20.2 23ZM18.1 36H22.05L22.75 30.7C23.7833 30.4333 24.742 30.0413 25.626 29.524C26.5087 29.008 27.3167 28.3833 28.05 27.65L33 29.7L34.95 26.3L30.65 23.05C30.8167 22.5833 30.9333 22.0913 31 21.574C31.0667 21.058 31.1 20.5333 31.1 20C31.1 19.4667 31.0667 18.9413 31 18.424C30.9333 17.908 30.8167 17.4167 30.65 16.95L34.95 13.7L33 10.3L28.05 12.4C27.3167 11.6333 26.5087 10.9913 25.626 10.474C24.742 9.958 23.7833 9.56667 22.75 9.3L22.1 4H18.15L17.45 9.3C16.4167 9.56667 15.4587 9.958 14.576 10.474C13.692 10.9913 12.8833 11.6167 12.15 12.35L7.2 10.3L5.25 13.7L9.55 16.9C9.38333 17.4 9.26667 17.9 9.2 18.4C9.13333 18.9 9.1 19.4333 9.1 20C9.1 20.5333 9.13333 21.05 9.2 21.55C9.26667 22.05 9.38333 22.55 9.55 23.05L5.25 26.3L7.2 29.7L12.15 27.6C12.8833 28.3667 13.692 29.008 14.576 29.524C15.4587 30.0413 16.4167 30.4333 17.45 30.7L18.1 36Z"
        fill="#fff" />
</svg>