<svg width="40" height="40" viewBox="0 0 48 48" fill="none" xmlns="http://www.w3.org/2000/svg">
<mask id="mask0_108_87" style="mask-type:alpha" maskUnits="userSpaceOnUse" x="0" y="0" width="48" height="48">
<rect x="0.35" y="0.35" width="47.3" height="47.3" fill="#D9D9D9" stroke="black" stroke-width="0.7"/>
</mask>
<g mask="url(#mask0_108_87)">
<path d="M18.7457 37.6451L18.7135 37.4425L18.521 37.3716C17.909 37.1461 17.2599 36.8383 16.5736 36.4461C15.8874 36.054 15.287 35.6478 14.7707 35.2284L14.602 35.0913L14.4044 35.1817L8.79616 37.7482L4.4582 30.0985L9.60664 26.3325L9.7913 26.1974L9.74166 25.9741C9.68037 25.6982 9.64066 25.3775 9.62467 25.0098C9.60817 24.6302 9.6 24.2938 9.6 24C9.6 23.7062 9.60817 23.3698 9.62467 22.9902C9.64066 22.6225 9.68037 22.3018 9.74166 22.0259L9.7913 21.8026L9.60664 21.6675L4.4582 17.9015L8.79616 10.2518L14.4044 12.8183L14.602 12.9087L14.7707 12.7716C15.287 12.3522 15.8874 11.946 16.5736 11.5539C17.2564 11.1637 17.9002 10.8749 18.5054 10.6838L18.712 10.6185L18.7457 10.4044L19.6992 4.35H28.3012L29.2543 10.3549L29.2865 10.5575L29.479 10.6284C30.0945 10.8552 30.7547 11.1564 31.4599 11.5336C32.1547 11.9052 32.7371 12.3134 33.2112 12.7559L33.3825 12.9158L33.5956 12.8183L39.2038 10.2518L43.5399 17.8982L38.3968 21.565L38.2124 21.6965L38.2568 21.9186C38.3195 22.2323 38.3593 22.5726 38.3753 22.9402C38.3918 23.3192 38.4 23.6724 38.4 24C38.4 24.3275 38.3918 24.6722 38.3754 25.0341C38.3594 25.3844 38.3197 25.7167 38.2568 26.0314L38.2127 26.252L38.3951 26.3837L43.5409 30.1001L39.2038 37.7482L33.5956 35.1817L33.398 35.0913L33.2293 35.2284C32.71 35.6503 32.1148 36.0664 31.4428 36.4762C30.7813 36.8795 30.1335 37.1745 29.4994 37.3648L29.2888 37.4279L29.2543 37.6451L28.3012 43.65H19.6988L18.7457 37.6451ZM21.4527 41.0434L21.491 41.35H21.8H26.2H26.509L26.5473 41.0434L27.2176 35.6807C28.2637 35.4052 29.258 34.996 30.1998 34.4533C31.1403 33.9112 31.9996 33.265 32.777 32.5149L37.8607 34.7211L38.1518 34.8474L38.306 34.57L40.306 30.97L40.4557 30.7004L40.2071 30.5179L35.6927 27.2041C35.8046 26.7059 35.8974 26.2137 35.9711 25.7274C36.0571 25.1598 36.1 24.5839 36.1 24C36.1 23.4196 36.0659 22.8472 35.9975 22.2829C35.9377 21.7899 35.8393 21.2917 35.7028 20.7885L40.2071 17.4821L40.4557 17.2996L40.306 17.03L38.306 13.43L38.1518 13.1526L37.8607 13.2789L32.7912 15.4789C32.0442 14.6693 31.2073 13.9844 30.2808 13.4253C29.3463 12.8614 28.3232 12.485 27.2146 12.2951L26.5473 6.95659L26.509 6.65H26.2H21.8H21.491L21.4527 6.95659L20.7834 12.3106C19.7065 12.557 18.695 12.9523 17.7502 13.4967C16.8086 14.0394 15.9628 14.701 15.2136 15.481L10.1393 13.2789L9.84818 13.1526L9.69405 13.43L7.69405 17.03L7.54426 17.2996L7.79289 17.4821L12.3073 20.7959C12.1954 21.2941 12.1026 21.7863 12.0289 22.2726C11.9429 22.8402 11.9 23.4161 11.9 24C11.9 24.5839 11.9429 25.1598 12.0289 25.7274C12.1026 26.2137 12.1954 26.7059 12.3073 27.2041L7.79289 30.5179L7.54426 30.7004L7.69404 30.97L9.69405 34.57L9.84818 34.8474L10.1393 34.7211L15.223 32.5149C16.0004 33.265 16.8597 33.9112 17.8002 34.4533C18.742 34.996 19.7363 35.4052 20.7824 35.6807L21.4527 41.0434ZM28.3525 28.3525C27.1518 29.5532 25.7077 30.15 24 30.15C22.2923 30.15 20.8482 29.5532 19.6475 28.3525C18.4468 27.1518 17.85 25.7077 17.85 24C17.85 22.2923 18.4468 20.8482 19.6475 19.6475C20.8482 18.4468 22.2923 17.85 24 17.85C25.7077 17.85 27.1518 18.4468 28.3525 19.6475C29.5532 20.8482 30.15 22.2923 30.15 24C30.15 25.7077 29.5532 27.1518 28.3525 28.3525ZM21.2775 26.7225C22.0265 27.4715 22.9405 27.85 24 27.85C25.0595 27.85 25.9735 27.4715 26.7225 26.7225C27.4715 25.9735 27.85 25.0595 27.85 24C27.85 22.9405 27.4715 22.0265 26.7225 21.2775C25.9735 20.5285 25.0595 20.15 24 20.15C22.9405 20.15 22.0265 20.5285 21.2775 21.2775C20.5285 22.0265 20.15 22.9405 20.15 24C20.15 25.0595 20.5285 25.9735 21.2775 26.7225Z" fill="#1C1B1F" stroke="white" stroke-width="0.7"/>
</g>
</svg>
